<?xml version="1.0" standalone="no"?><!DOCTYPE svg PUBLIC "-//W3C//DTD SVG 1.1//EN" "http://www.w3.org/Graphics/SVG/1.1/DTD/svg11.dtd"><svg t="1565510530293" class="icon" viewBox="0 0 1084 1024" version="1.1" xmlns="http://www.w3.org/2000/svg" p-id="2410" xmlns:xlink="http://www.w3.org/1999/xlink" width="317.578125" height="300"><defs><style type="text/css"></style></defs><path d="M825.223529 90.352941c-18.070588-36.141176-60.235294-60.235294-102.4-60.235294s-84.329412 24.094118-102.4 60.235294H0v120.470588h620.423529c18.070588 36.141176 60.235294 60.235294 102.4 60.235295s84.329412-24.094118 102.4-60.235295H1084.235294v-120.470588h-259.011765zM542.117647 391.529412c-42.164706 0-78.305882 24.094118-102.4 54.211764H0v120.470589h433.694118c18.070588 36.141176 60.235294 66.258824 108.423529 66.258823s84.329412-24.094118 108.423529-66.258823H1084.235294v-120.470589h-439.717647c-24.094118-30.117647-60.235294-54.211765-102.4-54.211764zM783.058824 752.941176c-42.164706 0-72.282353 18.070588-96.376471 48.188236H0v120.470588h674.635294c18.070588 42.164706 60.235294 72.282353 108.42353 72.282353s90.352941-30.117647 108.423529-72.282353H1084.235294v-120.470588h-204.8c-24.094118-30.117647-54.211765-48.188235-96.37647-48.188236z" p-id="2411" fill="#BFCBD9"></path></svg>